
<svg width="32" height="32" viewBox="0 0 300 300" xmlns="http://www.w3.org/2000/svg"><title>perfect_money</title><g fill="none" fill-rule="evenodd"><circle fill="#E33E23" cx="150" cy="150" r="150"/><path d="M34.456 151.947s66.778 14.418 76.161-16.616c9.2-30.428-21.31-36.72-21.31-36.72H75.902v51.021H61.54V100.27H48.823v-5.216s48.183-.192 53.504.43c26.752 3.127 39.772 51.053-3.074 60.603-33.325 7.428-64.797-4.139-64.797-4.139zM61.46 162.94v30.628s-.084 6.517-5.963 6.517h-7.32v5.112h41.448v-5.625h-9.169s-4.729-.536-4.729-5.345v-31.568H61.541l-.082.281zm52.973 42.51h41.745v-6.4h-12s-3.898-2.202-3.898-6.66v-77.085l46.528 90.048 45.515-88.324-1 76.196s1.142 6.298-5.298 6.298c-6.44 0-7.805.195-7.805.195l-.078 4.903h41.746v-5.829h-9.745s-4.062.399-4.062-4.062v-92.482s.06-2.02 3.655-2.02h8.46v-6.23h-25.901l-42.645 88.38-42.378-87.755h-23.177v5.281h7.36s2.55-.28 2.55 3.597c0 3.878-1 89.299-1 89.299s.337 6.63-6.941 6.63h-11.616v6.445l-.015-.425z" fill="#FFF"/></g></svg>