
<svg xmlns="http://www.w3.org/2000/svg" width="32" height="32" viewBox="0, 0, 400,400"><g fill-rule="evenodd"><path d="M134.667 76.667c-.719.718-.287 250.95.433 251.246.914.375 39.286.375 40.2 0 .661-.272.7-2.875.7-46.727 0-31.246.135-46.692.414-47.212.401-.749 1.065-.775 20.7-.796 11.157-.011 21.726-.189 23.486-.394 1.76-.206 6.17-.64 9.8-.965 3.63-.325 7.59-.776 8.8-1.002 5.997-1.123 12.389-2.763 13.847-3.551.414-.224 1.964-.949 3.444-1.611 9.395-4.204 17.221-11.944 25.333-25.055 3.473-5.614 7.926-18.209 8.981-25.4 1.484-10.124 1.658-13.053 1.437-24.2-.122-6.16-.399-12.19-.615-13.4a159.74 159.74 0 0 1-.821-5.4c-.235-1.76-.687-4.01-1.003-5-.316-.99-.95-3.15-1.409-4.8-2.361-8.492-6.752-17.2-11.869-23.537-.949-1.175-1.725-2.264-1.725-2.419 0-.407-6.324-6.602-8.092-7.926-4.009-3.004-5.39-3.894-8.442-5.443-7.021-3.562-10.569-4.543-19.666-5.437l-8.516-.835c-4.578-.448-94.976-.577-95.417-.136m75.813 42.696c2.486.31 6.517.671 8.957.803 16.389.888 26.546 10.541 29.337 27.88 1.255 7.796-1.18 22.536-4.32 26.154-.382.44-1.175 1.52-1.763 2.4-4.102 6.142-9.901 9.824-18.527 11.764-7.162 1.611-45.851 2.405-47.433.974-.92-.833-1.165-69.144-.251-70.058.726-.726 28.042-.659 34 .083" fill="#fafbfb"/><path d="M176.4.4c0 .232-1.304.402-3.1.405-3.627.007-4.9.277-4.9 1.042 0 .432-.837.553-3.837.553-3.501 0-3.856.07-4.047.8-.187.715-.546.8-3.363.8-2.886 0-3.153.068-3.153.8 0 .727-.267.8-2.938.8-2.372 0-3.07.146-3.621.755-.495.546-1.501.832-3.64 1.032-1.766.166-3.146.506-3.428.845-.306.37-1.271.568-2.76.568-1.781 0-2.45.178-3.013.8-.457.505-1.232.8-2.099.8-1.039 0-1.427.196-1.585.8-.163.621-.546.8-1.714.8-.827 0-1.709.247-1.959.548-.25.302-1.211.65-2.135.774-.924.124-1.886.507-2.138.851-.252.345-.753.627-1.114.627-.361 0-1.009.353-1.44.784-.455.455-1.62.895-2.776 1.048-1.118.149-2.084.507-2.203.816-.117.304-.653.552-1.192.552-1.392 0-2.245.396-2.245 1.043 0 .327-.412.557-1 .557-.55 0-1.36.36-1.8.8-.44.44-1.07.8-1.4.8-.333 0-.6.356-.6.8 0 .667-.267.8-1.6.8-1.333 0-1.6.133-1.6.8 0 .652-.267.8-1.437.8-1.101 0-1.487.187-1.647.8-.157.601-.546.8-1.563.8-.82 0-1.668.315-2.153.8-.44.44-1.16.8-1.6.8-.533 0-.8.267-.8.8 0 .622-.267.8-1.197.8-.763 0-1.377.29-1.696.8-.275.44-.732.8-1.016.8-.284 0-.62.27-.746.6-.127.33-.498.6-.825.6-.327 0-.689.36-.804.8-.116.443-.546.8-.963.8-.486 0-.753.283-.753.8 0 .661-.267.8-1.538.8-1.023 0-1.777.264-2.253.79-.393.434-1.051.896-1.462 1.027-.411.13-.747.495-.747.81 0 .315-.36.573-.8.573-.533 0-.8.267-.8.8s-.267.8-.8.8-.8.267-.8.8c0 .624-.267.8-1.213.8-.735 0-1.307.248-1.454.631-.133.346-.668.792-1.188.99-.52.197-.945.634-.945.969 0 .343-.35.61-.8.61-.444 0-.8.267-.8.6 0 .33-.225.602-.5.605-.546.006-2.29 1.277-3.698 2.695-.492.495-1.098.9-1.348.9s-.454.258-.454.573c0 .315-.36.687-.8.827-.44.14-.803.467-.807.727-.008.575-1.53 2.034-2.493 2.389-.385.143-.7.535-.7.871 0 .346-.348.613-.8.613-.533 0-.8.267-.8.8s-.267.8-.8.8-.8.267-.8.8-.267.8-.8.8-.8.267-.8.8c0 .452-.267.8-.613.8-.336 0-.728.315-.871.7-.355.963-1.814 2.485-2.389 2.493-.26.004-.587.367-.727.807-.14.44-.512.8-.827.8-.315 0-.573.287-.573.637 0 .351-.36.732-.8.847-.44.115-.8.452-.8.749 0 .296-.345.724-.767.95-.423.226-.887.952-1.032 1.614-.146.662-.52 1.203-.833 1.203-.312 0-.568.339-.568.753 0 .417-.357.847-.8.963-.44.115-.8.496-.8.847 0 .35-.276.637-.613.637-.336 0-.728.301-.869.669-.141.369-.586.999-.987 1.4-.402.402-.731 1.181-.731 1.731 0 .733-.213 1-.8 1-.44 0-.8.258-.8.573 0 .315-.36.687-.8.827-.44.14-.8.512-.8.827 0 .315-.36.933-.8 1.373-.44.44-.8 1.117-.8 1.504s-.36.928-.8 1.203c-.499.312-.8.933-.8 1.65 0 .813-.234 1.211-.8 1.359-.44.115-.8.496-.8.847a.64.64 0 0 1-.637.637c-.351 0-.729.348-.84.772-.111.425-.454.869-.762.988-.309.118-.561.553-.561.965 0 .413-.36 1.077-.8 1.475-.44.398-.8 1.013-.8 1.366 0 .353-.36.866-.8 1.141-.551.344-.8.933-.8 1.893s-.249 1.549-.8 1.893c-.44.275-.8.804-.8 1.176 0 .373-.36.791-.8.931-.595.189-.8.605-.8 1.627 0 1.106-.155 1.373-.8 1.373-.667 0-.8.267-.8 1.6 0 1.333-.133 1.6-.8 1.6-.465 0-.8.267-.8.637 0 .35-.36 1.094-.8 1.654-.44.559-.8 1.365-.8 1.792 0 .426-.248 1.022-.552 1.326-.303.303-.677 1.393-.832 2.422-.154 1.03-.626 2.242-1.048 2.696-.425.456-.768 1.395-.768 2.102 0 .941-.211 1.333-.8 1.487-.613.16-.8.546-.8 1.647 0 1.011-.178 1.437-.6 1.437-.427 0-.6.434-.6 1.504s-.23 1.647-.8 2.003c-.487.304-.8.933-.8 1.607 0 .613-.357 1.414-.8 1.793-.626.536-.8 1.18-.8 2.958 0 1.474-.214 2.509-.61 2.946-.35.387-.717 1.846-.863 3.431-.187 2.022-.451 2.898-.991 3.281-.571.405-.736 1.046-.736 2.853 0 1.994-.115 2.361-.8 2.54-.711.186-.8.546-.8 3.247 0 2.329-.13 3.037-.557 3.037-.807 0-1.043.912-1.043 4.033 0 2.234-.154 2.921-.8 3.567-.648.648-.8 1.333-.8 3.6 0 1.6-.171 2.8-.4 2.8-.263 0-.4 9.867-.4 28.8s.137 28.8.4 28.8c.23 0 .4 1.246.4 2.938 0 2.43.138 3.063.8 3.662.672.608.8 1.232.8 3.899 0 2.839.085 3.198.8 3.385.715.187.8.546.8 3.363 0 2.886.068 3.153.8 3.153.709 0 .8.267.8 2.338 0 1.77.18 2.501.743 3.011.517.467.819 1.479.99 3.317.136 1.454.522 3.063.857 3.575.343.523.61 1.814.61 2.945 0 1.481.212 2.226.8 2.814.44.44.8 1.248.8 1.797 0 .563.348 1.213.8 1.496.57.356.8.933.8 2.003s.173 1.504.6 1.504c.422 0 .6.426.6 1.437 0 1.101.187 1.487.8 1.647.574.15.8.546.8 1.401 0 .655.354 1.688.786 2.295.432.607.907 1.862 1.055 2.789.149.927.487 1.902.753 2.168.266.266.606 1.136.755 1.934.15.799.538 1.553.862 1.678.324.124.589.608.589 1.076 0 .513.317.933.8 1.059.601.157.8.546.8 1.563 0 1.086.158 1.353.8 1.353.652 0 .8.267.8 1.437 0 1.101.187 1.487.8 1.647.44.115.8.509.8.874 0 .366.36.925.8 1.242.46.331.8 1.035.8 1.656 0 1.486.381 2.344 1.043 2.344.306 0 .557.332.557.738 0 .406.36 1.064.8 1.462.44.398.8 1.146.8 1.662 0 .567.237.938.6.938.33 0 .6.287.6.637 0 .351.36.732.8.847.443.116.8.546.8.963 0 .486.283.753.8.753.579 0 .8.267.8.967 0 1.351.394 2.233.998 2.233.282 0 .631.63.776 1.4.157.838.496 1.4.844 1.4.324 0 .582.371.582.837 0 .501.321.922.8 1.047.44.115.8.475.8.8 0 .325.36.685.8.8.443.116.8.546.8.963 0 .414.329 1.082.731 1.484.401.401.846 1.031.987 1.4.141.368.533.669.869.669.346 0 .613.348.613.8 0 .533.267.8.8.8s.8.267.8.8c0 .444.267.8.6.8.338 0 .6.358.6.819 0 .451.45 1.236 1 1.746s1 1.119 1 1.354c0 .235.36.541.8.681.44.14.8.438.8.663 0 .491 2.064 2.737 2.515 2.737.476 0 1.722 1.302 2.008 2.1.139.385.528.7.864.7.339 0 .613.346.613.773 0 .425.36.887.8 1.027.44.14.8.512.8.827 0 .315.36.573.8.573.533 0 .8.267.8.8s.267.8.8.8.8.267.8.8c0 .493.269.803.7.807.764.007 2.206 1.381 2.616 2.493.143.385.535.7.871.7.337 0 .613.258.613.573 0 .315.36.687.8.827.44.14.8.512.8.827a.58.58 0 0 0 .582.573c.32 0 1.032.45 1.582 1s1.278 1 1.618 1c.34 0 .618.258.618.573 0 .315.343.682.763.815.42.133.864.506.987.827.124.322.494.585.823.585.33 0 .792.36 1.027.8.28.524.838.8 1.614.8.919 0 1.186.18 1.186.8 0 .533.267.8.8.8s.8.267.8.8.267.8.8.8c.45 0 .8.267.8.61 0 .335.412.767.916.958.504.192 1.157.637 1.449.99.322.387 1.149.642 2.084.642 1.284 0 1.551.138 1.551.8 0 .533.267.8.8.8s.8.267.8.8c0 .44.26.8.578.8.317 0 1.26.625 2.093 1.389.834.764 2.014 1.498 2.623 1.632.608.133 1.106.498 1.106.811a.56.56 0 0 0 .546.568c.3 0 .985.345 1.521.767.537.422 1.629.89 2.427 1.039.798.15 1.547.525 1.666.833.128.335.785.561 1.627.561 1.146 0 1.413.151 1.413.8 0 .667.267.8 1.6.8 1.333 0 1.6.133 1.6.8 0 .497.267.8.704.8.387 0 .928.36 1.203.8.312.499.933.8 1.65.8.813 0 1.211.234 1.359.8.155.592.546.8 1.502.8.735 0 1.5.282 1.771.652.291.399 1.281.73 2.544.851 1.321.127 2.067.385 2.067.716 0 .285.585.646 1.3.803.715.157 1.535.621 1.823 1.032.353.505 1.012.746 2.038.746 1.007 0 1.758.268 2.239.8.449.496 1.232.8 2.062.8.886 0 1.338.191 1.338.565 0 .351.633.672 1.677.848.922.156 1.914.521 2.204.811.291.291 1.381.634 2.424.763 1.042.13 2.705.501 3.695.826.99.325 2.717.59 3.838.589 1.532-.002 2.218.197 2.762.798.599.662 1.232.8 3.662.8 2.671 0 2.938.073 2.938.8 0 .733.267.8 3.2.8 2.933 0 3.2.067 3.2.8 0 .744.267.8 3.786.8 3.376 0 3.832.087 4.214.8.382.713.838.8 4.214.8 2.257 0 3.786.162 3.786.4 0 .262 7.867.4 22.8.4s22.8-.138 22.8-.4c0-.239 1.532-.4 3.797-.4 3.363 0 3.853-.091 4.296-.8.44-.705.933-.8 4.157-.8 3.32 0 3.676-.074 3.866-.8.189-.722.546-.8 3.643-.8 3.001 0 3.497-.101 3.934-.8.398-.638.933-.8 2.641-.8 1.759 0 2.176-.134 2.337-.752.168-.64.689-.777 3.534-.926 1.835-.097 3.575-.366 3.866-.598.291-.233 1.476-.509 2.633-.615 1.157-.106 2.417-.466 2.8-.8s1.38-.73 2.217-.88c.837-.15 1.621-.533 1.743-.851.133-.347.764-.578 1.579-.578.824 0 1.671-.314 2.157-.8.44-.44 1.248-.8 1.797-.8.563 0 1.213-.348 1.496-.8.333-.534.933-.8 1.803-.8.735 0 1.627-.323 2.043-.739.407-.407 1.525-.845 2.486-.974.961-.129 1.953-.516 2.205-.86.252-.345 1.022-.627 1.711-.627.819 0 1.425-.277 1.752-.8.31-.496.933-.8 1.641-.8.804 0 1.203-.236 1.35-.8.127-.486.546-.8 1.066-.8.472 0 1.082-.36 1.357-.8.283-.452.933-.8 1.496-.8.73 0 .997-.214.997-.8 0-.649.267-.8 1.413-.8.886 0 1.498-.223 1.642-.6.127-.33.661-.6 1.188-.6.526 0 1.291-.334 1.699-.742.408-.408 1.263-.871 1.9-1.029.637-.158 1.743-.905 2.457-1.658.83-.876 1.675-1.371 2.338-1.371.701 0 1.106-.259 1.247-.8.116-.443.546-.8.963-.8.486 0 .753-.283.753-.8 0-.533.267-.8.8-.8s.8-.267.8-.8c0-.667.267-.8 1.6-.8 1.067 0 1.867-.267 2.4-.8.44-.44 1.087-.8 1.437-.8.351 0 .732-.36.847-.8.116-.443.546-.8.963-.8.471 0 .753-.282.753-.753 0-.417.357-.847.8-.963.44-.115.8-.496.8-.847 0-.394.343-.637.901-.637.496 0 1.426-.556 2.068-1.236.641-.679 1.586-1.395 2.098-1.59.513-.195.933-.629.933-.964 0-.343.35-.61.8-.61.533 0 .8-.267.8-.8 0-.497.267-.8.704-.8.387 0 .928-.36 1.203-.8.275-.44.812-.8 1.193-.8s1.714-1.08 2.962-2.4c1.249-1.32 2.465-2.4 2.704-2.4.239 0 .434-.287.434-.637 0-.351.354-.73.787-.844.432-.113.895-.546 1.027-.962.132-.416.427-.757.657-.757.579 0 2.314-1.698 2.322-2.273.004-.26.367-.587.807-.727.44-.14.8-.529.8-.864 0-.336.36-.705.8-.82.44-.115.8-.377.8-.582 0-.206 1.08-1.45 2.4-2.766 1.639-1.634 2.4-2.706 2.4-3.38 0-.721.216-.988.8-.988.533 0 .8-.267.8-.8s.267-.8.8-.8c.517 0 .8-.267.8-.753 0-.417.357-.847.8-.963.574-.15.8-.546.8-1.4 0-.854.226-1.25.8-1.4.44-.115.8-.496.8-.847 0-.35.27-.637.6-.637.33 0 .6-.339.6-.753 0-.417.357-.847.8-.963.44-.115.8-.496.8-.847 0-.35.274-.637.61-.637.335 0 .772-.425.969-.945.198-.52.644-1.055.99-1.188.347-.133.631-.49.631-.792 0-.303.36-.877.8-1.275.536-.485.8-1.232.8-2.262 0-1.271.139-1.538.8-1.538.517 0 .8-.267.8-.753 0-.417.357-.847.8-.963.44-.115.8-.496.8-.847 0-.35.251-.637.557-.637.572 0 1.043-.827 1.043-1.833 0-.312.368-.972.819-1.467.45-.495 1.078-1.183 1.396-1.53.317-.346.691-1.201.831-1.9.14-.698.481-1.27.757-1.27.585 0 .984-1.248.992-3.1.003-.886.196-1.3.605-1.3.333 0 .6-.356.6-.8 0-.533.267-.8.8-.8.642 0 .8-.267.8-1.353 0-1.017.199-1.406.8-1.563.609-.159.8-.546.8-1.62 0-1.059.199-1.473.8-1.664.44-.14.8-.512.8-.827 0-.315.36-.933.8-1.373.533-.533.8-1.333.8-2.4 0-1.091.175-1.6.55-1.6.566 0 1.05-1.66 1.05-3.603 0-.767.244-1.167.8-1.313.613-.16.8-.546.8-1.647 0-.962.184-1.437.557-1.437.72 0 1.043-.878 1.043-2.833 0-1.073.176-1.567.557-1.567.691 0 1.043-.868 1.043-2.571 0-.797.311-1.587.8-2.029.44-.398.8-.972.8-1.276 0-.304.276-.973.613-1.487.337-.515.722-1.904.855-3.086.133-1.183.43-2.389.66-2.68.23-.291.497-2.031.594-3.866.149-2.845.286-3.366.926-3.534.651-.17.752-.597.752-3.187 0-2.654.09-3.014.8-3.2.726-.19.8-.546.8-3.832 0-3.214.09-3.672.8-4.052.722-.386.8-.838.8-4.614 0-3.653.102-4.288.8-4.986.724-.724.8-1.333.8-6.4 0-3.467.152-5.6.4-5.6.259 0 .4-4.667.4-13.2 0-7.832-.151-13.2-.37-13.2-.205 0-.429-2.614-.5-5.833-.111-5-.23-5.906-.83-6.344-.582-.425-.7-1.155-.7-4.334 0-4.158-.191-5.089-1.043-5.089-.437 0-.557-.824-.557-3.837 0-3.501-.07-3.856-.8-4.047-.708-.185-.8-.546-.8-3.136 0-2.51-.107-2.96-.75-3.164-.637-.202-.778-.755-.929-3.636-.098-1.869-.391-3.61-.65-3.869-.259-.259-.472-1.02-.473-1.691-.003-1.646-.745-4.22-1.217-4.22-.209 0-.381-.426-.381-.946s-.36-1.404-.8-1.963c-.44-.56-.8-1.572-.8-2.251 0-.8-.281-1.409-.8-1.733-.564-.352-.8-.933-.8-1.971 0-1.861-.333-2.736-1.043-2.736-.373 0-.557-.475-.557-1.437 0-1.071-.192-1.488-.752-1.635-.576-.15-.799-.674-.948-2.229-.119-1.235-.452-2.221-.848-2.51-.396-.29-.652-1.049-.652-1.933 0-.923-.293-1.749-.8-2.256-.44-.44-.8-1.07-.8-1.4 0-.333-.356-.6-.8-.6-.663 0-.8-.267-.8-1.553 0-1.217-.173-1.599-.8-1.763-.613-.16-.8-.546-.8-1.647 0-1.17-.148-1.437-.8-1.437-.533 0-.8-.267-.8-.8 0-.44-.247-.8-.548-.8-.356 0-.622-.657-.759-1.876-.117-1.031-.476-2.069-.8-2.305-.323-.237-.719-1.025-.878-1.752-.16-.726-.537-1.416-.837-1.531-.301-.115-.657-.553-.79-.973-.133-.42-.5-.763-.815-.763-.339 0-.573-.394-.573-.967 0-1.35-.394-2.233-.996-2.233-.281 0-.605-.36-.72-.8-.115-.44-.496-.8-.847-.8-.37 0-.637-.335-.637-.8 0-.533-.267-.8-.8-.8-.629 0-.8-.267-.8-1.248 0-1.372-1.905-4.714-2.7-4.737-.275-.008-.5-.363-.5-.788 0-.425-.36-.887-.8-1.027-.44-.14-.8-.512-.8-.827 0-.315-.36-.573-.8-.573-.533 0-.8-.267-.8-.8 0-.444-.267-.8-.6-.8-.333 0-.6-.356-.6-.8 0-.533-.267-.8-.8-.8-.579 0-.8-.267-.8-.967 0-1.381-.398-2.233-1.043-2.233-.306 0-.557-.36-.557-.8 0-.517-.267-.8-.753-.8-.417 0-.847-.357-.963-.8-.115-.44-.476-.8-.802-.8-.361 0-.696-.548-.856-1.4-.144-.772-.502-1.4-.797-1.4-.295 0-.63-.36-.745-.8-.115-.44-.475-.8-.8-.8-.325 0-.685-.36-.8-.8-.115-.44-.496-.8-.847-.8-.37 0-.637-.335-.637-.8 0-.533-.267-.8-.8-.8s-.8-.267-.8-.8-.267-.8-.8-.8-.8-.267-.8-.8c0-.44-.258-.8-.573-.8-.315 0-.687-.36-.827-.8-.14-.44-.5-.8-.8-.8-.3 0-.66-.36-.8-.8-.14-.44-.529-.8-.864-.8-.336 0-.705-.36-.82-.8-.115-.44-.413-.801-.663-.803-.249-.002-1.349-.992-2.445-2.2-1.095-1.208-2.206-2.197-2.469-2.197-.263 0-1.012-.45-1.666-1-.654-.55-1.388-1-1.631-1-.243 0-.442-.36-.442-.8 0-.533-.267-.8-.8-.8-.444 0-.8-.267-.8-.6 0-.33-.284-.6-.631-.6-.348 0-1.345-.72-2.216-1.6-.871-.88-1.937-1.6-2.368-1.6-.452 0-.785-.271-.785-.637 0-.351-.36-.732-.8-.847-.44-.115-.8-.475-.8-.8 0-.325-.36-.685-.8-.8-.44-.115-.8-.446-.8-.736 0-.289-.378-.646-.839-.793-.462-.146-1.182-.608-1.6-1.026-.494-.494-1.322-.761-2.361-.761-1.333 0-1.6-.133-1.6-.8 0-.533-.267-.8-.8-.8-.465 0-.8-.267-.8-.637 0-.351-.36-.732-.8-.847-.44-.115-.8-.45-.8-.745 0-.294-.618-.651-1.372-.792-.755-.142-1.469-.51-1.588-.818-.118-.309-.47-.561-.781-.561-.311 0-.66-.36-.775-.8-.159-.606-.546-.8-1.6-.8s-1.441-.194-1.6-.8c-.159-.606-.546-.8-1.6-.8s-1.441-.194-1.6-.8c-.16-.613-.546-.8-1.647-.8-1.17 0-1.437-.148-1.437-.8 0-.618-.267-.8-1.173-.8-.822 0-1.249-.24-1.427-.8-.162-.511-.605-.8-1.227-.8-.565 0-.973-.234-.973-.557 0-.594-.834-1.043-1.936-1.043-.37 0-.896-.36-1.171-.8-.34-.544-.933-.8-1.854-.8-.779 0-1.443-.233-1.564-.55-.116-.302-1.073-.679-2.126-.837-1.053-.158-2.109-.552-2.346-.876-.237-.325-1.197-.693-2.132-.818-1.084-.146-1.846-.499-2.1-.974-.246-.458-.836-.745-1.536-.745-.625 0-1.361-.27-1.635-.6-.274-.33-1.1-.6-1.835-.6-.927 0-1.468-.245-1.765-.8-.311-.581-.838-.8-1.926-.8-1.039 0-1.674-.245-2.074-.8-.439-.609-1.035-.8-2.502-.8-1.088 0-2.349-.277-2.898-.637-.581-.38-2.254-.725-4.154-.855-2.66-.182-3.213-.34-3.376-.963-.158-.604-.582-.745-2.233-.745-1.504 0-2.246-.209-2.837-.8-.666-.666-1.333-.8-3.986-.8-2.776 0-3.241-.103-3.614-.8-.376-.703-.838-.8-3.814-.8-2.853 0-3.512-.126-4.186-.8-.681-.681-1.333-.8-4.4-.8-2.133 0-3.6-.163-3.6-.4 0-.262-7.867-.4-22.8-.4s-22.8.138-22.8.4m53.684 76.403l8.516.835c9.097.894 12.645 1.875 19.666 5.437 3.052 1.549 4.433 2.439 8.442 5.443 1.768 1.324 8.092 7.519 8.092 7.926 0 .155.776 1.244 1.725 2.419 5.117 6.337 9.508 15.045 11.869 23.537a169.61 169.61 0 0 0 1.409 4.8c.316.99.768 3.24 1.003 5 .236 1.76.606 4.19.821 5.4 1.613 9.04.517 33.997-1.869 42.6-2.548 9.184-5.177 15.944-7.934 20.4-8.112 13.111-15.938 20.851-25.333 25.055-1.48.662-3.03 1.387-3.444 1.611-1.458.788-7.85 2.428-13.847 3.551-1.21.226-5.17.677-8.8 1.002-3.63.325-8.04.759-9.8.965-1.76.205-12.329.383-23.486.394-19.635.021-20.299.047-20.7.796-.279.52-.414 15.966-.414 47.212 0 43.852-.039 46.455-.7 46.727-.914.375-39.286.375-40.2 0-.72-.296-1.152-250.528-.433-251.246.441-.441 90.839-.312 95.417.136M176.48 119.28c-.914.914-.669 69.225.251 70.058 1.582 1.431 40.271.637 47.433-.974 8.626-1.94 14.425-5.622 18.527-11.764.588-.88 1.381-1.96 1.763-2.4 3.14-3.618 5.575-18.358 4.32-26.154-2.791-17.339-12.948-26.992-29.337-27.88-2.44-.132-6.471-.493-8.957-.803-5.958-.742-33.274-.809-34-.083" fill="#049cdc"/></g></svg>